<svg version="1.2" xmlns="http://www.w3.org/2000/svg" viewBox="0 0 612 792" width="612" height="792">
	<title>LEARN IT Final</title>
	<defs>
		<linearGradient id="g1" x2="1" gradientUnits="userSpaceOnUse" gradientTransform="matrix(156.949,-11.203,16.187,226.783,215.817,348.553)">
			<stop offset=".276" stop-color="#fefefe" stop-opacity=".9"/>
			<stop offset=".534" stop-color="#fefefe" stop-opacity=".9"/>
			<stop offset="1" stop-color="#ffffff" stop-opacity="1"/>
		</linearGradient>
		<linearGradient id="g2" x2="1" gradientUnits="userSpaceOnUse" gradientTransform="matrix(-206.396,14.198,-19.157,-278.479,511.931,157.255)">
			<stop offset="0" stop-color="#fefefe" stop-opacity=".4"/>
			<stop offset="1" stop-color="#ffffff" stop-opacity="1"/>
		</linearGradient>
		<linearGradient id="g3" x2="1" gradientUnits="userSpaceOnUse" gradientTransform="matrix(199.766,-6.976,9.741,278.95,89.293,253.765)">
			<stop offset="0" stop-color="#fefefe" stop-opacity=".4"/>
			<stop offset="1" stop-color="#ffffff" stop-opacity="1"/>
		</linearGradient>
		<linearGradient id="g4" x2="1" gradientUnits="userSpaceOnUse" gradientTransform="matrix(NaN,NaN,NaN,NaN,NaN,NaN)">
			<stop offset="0" stop-color="#ffffff"/>
			<stop offset=".01" stop-color="#f9fafa"/>
			<stop offset=".33" stop-color="#d7d9da"/>
			<stop offset=".445" stop-color="#caccce"/>
			<stop offset="1" stop-color="#7c7c7c"/>
		</linearGradient>
	</defs>
	<style>
		tspan { white-space:pre } 
		.s0 { fill: #000000 } 
		.t1 { font-size: 13px;fill: #000000;font-weight: 400;font-family: "LiberationSans", "Liberation Sans" } 
		.s2 { fill: url(#g1) } 
		.s3 { fill: #ededed } 
		.s4 { fill: url(#g2) } 
		.s5 { fill: url(#g3) } 
		.s6 { fill: #ffffff } 
		.s7 { fill: url(#g4) } 
	</style>
	<g id="Layer_2">
		<path fill-rule="evenodd" class="s0" d="m0 0h612v792h-612z"/>
		<text id="LEARN IT " style="transform: matrix(1.489,0,0,1,147.992,739.538)" >
			<tspan x="0" y="0" class="t1">LEARN IT 
</tspan>
		</text>
	</g>
	<g id="Layer_1">
		<path class="s2" d="m364.1 224c-0.9-0.2-2.1 2.5-2.3 2.9-2.8 5.7-31.7 40.5-105.5 125.3-18.2 26.2-25.5 49.4-28.8 65.1-3.6 17.5-6.1 43.5-2.1 44.5 1.5 0.3 3.3-2.8 6-7 6.3-10.2 14-19.6 29.4-38.5 8.7-10.7 16.4-18.5 21.8-24 10.6-10.9 11.7-10.9 20.7-20.3 10.5-11.1 17.7-20.5 22.5-26.8 6.8-8.8 10.2-13.2 14.1-19.8 4.9-8.2 8.5-16 11.6-23 2.8-6.2 4.2-9.3 5.4-12.6 2.9-8.3 3.8-15.1 5.5-28.2 1-7.3 1.4-12.4 2-22.5 0.7-10.5 0.7-14.8-0.3-15.1z"/>
		<path class="s3" d="m319.7 576.5c1.3 0.6 3.7-4.1 4-4.8 5.2-9.9 56.9-72.8 186.4-224.3 6.7-10.4 10.4-19.8 12.5-26.5 1.1-3.6 8.9-29.7-0.6-50.9-1.4-3.1-4.2-5.2-4.2-5.2-1.3-1.2-1.9-1.7-2.4-2-6.7-3.3-28.6 26-30.2 28-0.9 1.3-3.4 4.7-6.3 8.2-0.9 1.1-2.7 3.2-4.2 5-1.3 1.7-1.5 1.9-2.9 3.6-5.3 6.2-9.4 10.6-14.3 16.1-9.2 10.4-12.9 15.7-36 45-11 14-28.8 36.5-42 53.2-19.6 24.7-24.8 31-32.3 43.9-6.8 11.8-13.8 24.2-18.9 42.9-1.8 6.5-3.4 17.8-6.7 40.3-2.7 18.9-3.4 26.8-1.9 27.5z"/>
		<path class="s4" d="m296.7 32.2c1.2-0.6 3.9 3.8 4.4 4.5 6 9.5 67.6 75.5 218.5 232-0.5-0.7-1.4-2-3.1-2.9-0.6-0.3-2.3-1.2-4.2-1-1.8 0.2-2.9 1.3-4.7 3-4.1 3.7-3.6 2.5-7.1 5.7-1.9 1.8-3.5 3.7-6.7 7.5-1.6 1.9-8.3 9.8-10.4 12.9-0.3 0.4-0.8 1.2-1.6 2.1-0.8 0.9-1.1 1-1.9 1.9-1 1.1-1 1.5-1.4 1.6-0.6 0.1-1.1-0.8-2.7-2.8-0.5-0.6-1.1-1.1-1.7-1.8-2-2.2-4.3-4.6-5.6-5.9-4.5-4.7-40.3-42.1-54.7-57.2-36.1-38.1-31.5-34.4-45.9-49.8-21.4-23.3-27-29.2-35.4-41.5-7.7-11.2-15.7-23-22.1-41.3-2.3-6.3-4.8-17.5-9.7-39.7-4.2-18.7-5.4-26.5-4-27.3z"/>
		<path class="s5" d="m283.4 107.4c-1.2-0.5-3.5 4.2-3.8 4.9-5.1 10-56.6 78.1-184.8 241.4 0 3.4-0.7 5.2-1.4 6.3-0.2 0.2-0.4 0.6-0.4 1 0.2 1.3 3.2 1.1 5.1 2.5 4.4 3.2 3.8 2.1 7.6 5 2 1.5 3.8 3.2 7.4 6.7 1.9 1.7 9.3 8.8 11.7 11.7 0.3 0.4 0.9 1.2 1.9 2 0.8 0.8 1.1 0.8 2 1.6 1.1 1.1 1.1 1.5 1.5 1.5 0.7 0 1.1-1 2.5-3 0.4-0.7 1-1.3 1.4-2 1.8-2.5 3.9-5.1 5-6.5 4-5.1 35.8-46 48.5-62.6 31.9-41.5 27.8-37.4 40.5-54.2 18.9-25.4 23.9-31.8 31-44.9 6.5-12 13.2-24.6 17.7-43.4 1.6-6.6 2.9-17.9 5.5-40.5 2.2-19 2.7-26.9 1.1-27.5z"/>
		<path class="s3" d="m305.6 654.5c-1.2 0.6-3.9-3.8-4.4-4.5-5.9-9.5-62.2-68.2-203.1-209.2-1.9-1.9-6.4-7.5-10.3-15.8 0 0-13.2-27.8-2-56.6 1-2.6 3.1-5.8 7.4-12.3 1.6-2.5 2.9-4.4 4.5-4.3 1.3 0.2 1.9 1.7 3.9 5.2 1.4 2.3 3 4.5 4.5 6.8 2.4 3.8 4.6 6.3 7.1 9.3 4.8 5.7 13.5 14.9 15.1 17.2 0.3 0.4 1.2 1.7 2.4 3.4 1.3 1.7 3.4 4.6 6.6 8.4 1.6 2 4.2 5 8.9 10.1 3.4 3.6 7.9 8.4 13.5 13.9 0 0 7.1 7.2 28.4 29.1 30.4 31.5 26.4 28.7 45.9 49.7 21.5 23.2 27.2 29.1 35.6 41.4 7.7 11.2 15.7 23 22.2 41.3 2.2 6.3 4.8 17.4 9.8 39.7 4.2 18.6 5.5 26.4 4 27.2z"/>
		<path class="s6" d=""/>
		<path class="s6" d=""/>
		<path class="s6" d=""/>
		<path class="s6" d="m286.6 368.8q-10.1 1.1-20.2 2.3"/>
		<path class="s7" d=""/>
		<path class="s6" d=""/>
	</g>
</svg>